# xmcd
# 
# Track frame offsets:
#     150
#     27615
#     58762
#     73405
#     84315
#     91067
#     108915
#     114482
#     130552
#     160985
#     186060
#     232230
# 
# Disc length: 3518
# 
# Revision: 29
# Processed by: cddbd v1.5.2PL0 Copyright (c) Steve Scherf et al.
# Submitted via: fre:ac v1.0.31
# 
DISCID=a00dbc0c
DTITLE=Original Soundtrack - Pirates Of The Caribbean: Dead Man's Chest
DYEAR=2006
DGENRE=Soundtrack
TTITLE0=Jack Sparrow
TTITLE1=The Kraken
TTITLE2=Davy Jones
TTITLE3=I've Got My Eye On You
TTITLE4=Dinner Is Served
TTITLE5=Tia Dalma
TTITLE6=Two Hornpipes (Tortuga)
TTITLE7=A Family Affair
TTITLE8=Wheel Of Fortune
TTITLE9=You Look Good Jack
TTITLE10=Hello Beastie
TTITLE11=He's A Pirate (Tiësto Remix)
EXTD=
EXTT0=
EXTT1=
EXTT2=
EXTT3=
EXTT4=
EXTT5=
EXTT6=
EXTT7=
EXTT8=
EXTT9=
EXTT10=
EXTT11=
PLAYORDER=
